<svg width="900" height="1100" viewBox="0 0 900 1100" fill="none" xmlns="http://www.w3.org/2000/svg">
  <rect width="900" height="1100" fill="none"/>
  <ellipse cx="450" cy="1040" rx="265" ry="46" fill="#020617" opacity="0.62"/>
  <path d="M182 1035C206 825 275 681 450 681C625 681 694 825 718 1035H182Z" fill="url(#body)"/>
  <path d="M262 1018C284 842 333 742 450 742C567 742 616 842 638 1018H262Z" fill="url(#core)" opacity="0.95"/>
  <path d="M311 760L450 858L589 760L643 1035H257L311 760Z" fill="url(#kit)"/>
  <path d="M394 696L450 858L506 696H394Z" fill="url(#collar)"/>
  <path d="M450 842L394 696H506L450 842Z" fill="#E0F2FE" opacity="0.88"/>
  <circle cx="450" cy="426" r="174" fill="url(#head)"/>
  <path d="M291 403C298 271 371 184 456 184C554 184 623 277 609 403C578 340 529 312 462 313C394 314 337 343 291 403Z" fill="url(#hair)"/>
  <path d="M299 492C260 464 258 385 302 381C316 382 325 394 330 411C322 441 318 469 299 492Z" fill="#475569" opacity="0.88"/>
  <path d="M601 492C640 464 642 385 598 381C584 382 575 394 570 411C578 441 582 469 601 492Z" fill="#475569" opacity="0.88"/>
  <path d="M334 407C368 356 415 334 467 334C522 334 565 359 593 407C584 289 526 218 450 218C373 218 315 289 334 407Z" fill="url(#faceShade)" opacity="0.72"/>
  <path d="M331 611C363 678 404 713 450 713C496 713 537 678 569 611V711C537 771 497 801 450 801C403 801 363 771 331 711V611Z" fill="url(#neck)"/>
  <path d="M236 1035L318 780C262 811 216 900 182 1035H236Z" fill="url(#side)"/>
  <path d="M664 1035L582 780C638 811 684 900 718 1035H664Z" fill="url(#sideRight)"/>
  <path d="M276 1020H624" stroke="url(#edge)" stroke-width="18" stroke-linecap="round" opacity="0.9"/>
  <path d="M250 934C333 970 383 986 450 986C517 986 567 970 650 934" stroke="url(#shine)" stroke-width="5" stroke-linecap="round" opacity="0.55"/>
  <path d="M236 753C312 676 383 638 450 638C517 638 588 676 664 753" stroke="white" stroke-width="4" opacity="0.16"/>
  <circle cx="450" cy="432" r="205" stroke="url(#halo)" stroke-width="8" opacity="0.45"/>
  <circle cx="450" cy="432" r="236" stroke="url(#halo2)" stroke-width="2" opacity="0.34"/>
  <path d="M230 1040C260 880 333 790 450 790C567 790 640 880 670 1040" stroke="url(#rim)" stroke-width="7" opacity="0.58"/>
  <defs>
    <radialGradient id="head" cx="0" cy="0" r="1" gradientUnits="userSpaceOnUse" gradientTransform="translate(405 314) rotate(67) scale(325)"><stop stop-color="#F8FAFC"/><stop offset="0.28" stop-color="#CBD5E1"/><stop offset="0.62" stop-color="#64748B"/><stop offset="1" stop-color="#0F172A"/></radialGradient>
    <linearGradient id="hair" x1="450" y1="184" x2="450" y2="420" gradientUnits="userSpaceOnUse"><stop stop-color="#020617"/><stop offset="0.65" stop-color="#111827"/><stop offset="1" stop-color="#334155"/></linearGradient>
    <radialGradient id="faceShade" cx="0" cy="0" r="1" gradientUnits="userSpaceOnUse" gradientTransform="translate(470 340) rotate(85) scale(250)"><stop stop-color="#E2E8F0"/><stop offset="0.55" stop-color="#64748B"/><stop offset="1" stop-color="#0F172A"/></radialGradient>
    <linearGradient id="neck" x1="450" y1="611" x2="450" y2="801" gradientUnits="userSpaceOnUse"><stop stop-color="#64748B"/><stop offset="1" stop-color="#0F172A"/></linearGradient>
    <linearGradient id="body" x1="450" y1="681" x2="450" y2="1035" gradientUnits="userSpaceOnUse"><stop stop-color="#1E293B"/><stop offset="0.48" stop-color="#07111F"/><stop offset="1" stop-color="#020617"/></linearGradient>
    <linearGradient id="core" x1="344" y1="720" x2="568" y2="1035" gradientUnits="userSpaceOnUse"><stop stop-color="#0EA5E9" stop-opacity="0.54"/><stop offset="0.42" stop-color="#111827"/><stop offset="1" stop-color="#020617"/></linearGradient>
    <linearGradient id="kit" x1="282" y1="760" x2="622" y2="1040" gradientUnits="userSpaceOnUse"><stop stop-color="#22D3EE" stop-opacity="0.55"/><stop offset="0.28" stop-color="#334155"/><stop offset="0.62" stop-color="#0F172A"/><stop offset="1" stop-color="#020617"/></linearGradient>
    <linearGradient id="collar" x1="394" y1="696" x2="506" y2="858" gradientUnits="userSpaceOnUse"><stop stop-color="#F8FAFC"/><stop offset="1" stop-color="#94A3B8"/></linearGradient>
    <linearGradient id="side" x1="182" y1="770" x2="318" y2="1035" gradientUnits="userSpaceOnUse"><stop stop-color="#172033"/><stop offset="1" stop-color="#020617"/></linearGradient>
    <linearGradient id="sideRight" x1="718" y1="770" x2="582" y2="1035" gradientUnits="userSpaceOnUse"><stop stop-color="#172033"/><stop offset="1" stop-color="#020617"/></linearGradient>
    <linearGradient id="edge" x1="276" y1="1020" x2="624" y2="1020" gradientUnits="userSpaceOnUse"><stop stop-color="#64748B"/><stop offset="0.5" stop-color="#E2E8F0"/><stop offset="1" stop-color="#22D3EE"/></linearGradient>
    <linearGradient id="shine" x1="250" y1="934" x2="650" y2="934" gradientUnits="userSpaceOnUse"><stop stop-color="white" stop-opacity="0"/><stop offset="0.5" stop-color="white"/><stop offset="1" stop-color="white" stop-opacity="0"/></linearGradient>
    <linearGradient id="halo" x1="250" y1="235" x2="660" y2="640" gradientUnits="userSpaceOnUse"><stop stop-color="#22D3EE"/><stop offset="0.52" stop-color="#F8FAFC"/><stop offset="1" stop-color="#8B5CF6"/></linearGradient>
    <linearGradient id="halo2" x1="214" y1="196" x2="686" y2="668" gradientUnits="userSpaceOnUse"><stop stop-color="#F8FAFC" stop-opacity="0"/><stop offset="0.45" stop-color="#F8FAFC"/><stop offset="1" stop-color="#22D3EE" stop-opacity="0"/></linearGradient>
    <linearGradient id="rim" x1="230" y1="790" x2="670" y2="1040" gradientUnits="userSpaceOnUse"><stop stop-color="#22D3EE"/><stop offset="0.5" stop-color="#F8FAFC"/><stop offset="1" stop-color="#8B5CF6"/></linearGradient>
  </defs>
</svg>
