<svg width="900" height="1100" viewBox="0 0 900 1100" fill="none" xmlns="http://www.w3.org/2000/svg">
  <rect width="900" height="1100" fill="none"/>
  <ellipse cx="450" cy="1030" rx="250" ry="42" fill="#020617" opacity="0.55"/>
  <path d="M277 1008C286 824 320 702 450 702C580 702 614 824 623 1008H277Z" fill="url(#kit)"/>
  <path d="M333 760L450 833L567 760L615 1008H285L333 760Z" fill="url(#kit2)"/>
  <path d="M391 706L450 833L509 706H391Z" fill="#E0F2FE" opacity="0.92"/>
  <path d="M450 810L392 704H508L450 810Z" fill="#0EA5E9" opacity="0.9"/>
  <path d="M259 870C225 914 202 970 190 1030H286L325 800C303 814 280 842 259 870Z" fill="#0B1220"/>
  <path d="M641 870C675 914 698 970 710 1030H614L575 800C597 814 620 842 641 870Z" fill="#0B1220"/>
  <circle cx="450" cy="440" r="158" fill="url(#skin)"/>
  <path d="M298 410C300 287 377 201 453 201C543 201 612 281 606 406C584 350 542 323 480 325C406 327 350 355 298 410Z" fill="#061225"/>
  <path d="M310 475C270 458 260 382 302 378C313 379 319 388 324 401C318 426 316 453 310 475Z" fill="#D9A26F"/>
  <path d="M590 475C630 458 640 382 598 378C587 379 581 388 576 401C582 426 584 453 590 475Z" fill="#D9A26F"/>
  <path d="M376 445C394 432 414 432 431 445" stroke="#111827" stroke-width="12" stroke-linecap="round" opacity="0.62"/>
  <path d="M469 445C487 432 507 432 524 445" stroke="#111827" stroke-width="12" stroke-linecap="round" opacity="0.62"/>
  <path d="M410 535C437 555 465 555 493 535" stroke="#7C3F22" stroke-width="12" stroke-linecap="round" opacity="0.56"/>
  <path d="M353 629C380 671 414 693 450 693C486 693 520 671 547 629V715C522 762 491 786 450 786C409 786 378 762 353 715V629Z" fill="url(#neck)"/>
  <path d="M260 1008H640" stroke="#22D3EE" stroke-width="16" stroke-linecap="round" opacity="0.82"/>
  <circle cx="450" cy="880" r="60" fill="#020617" opacity="0.22"/>
  <path d="M450 821L477 841L467 873H433L423 841L450 821Z" fill="#E0F2FE"/>
  <path d="M423 841L393 852L389 886L411 904L433 873L423 841Z" fill="#94A3B8"/>
  <path d="M477 841L507 852L511 886L489 904L467 873L477 841Z" fill="#CBD5E1"/>
  <path d="M411 904L401 935L433 957L450 944V910L433 873L411 904Z" fill="#E0F2FE"/>
  <path d="M489 904L499 935L467 957L450 944V910L467 873L489 904Z" fill="#F8FAFC"/>
  <defs>
    <linearGradient id="kit" x1="450" y1="702" x2="450" y2="1008" gradientUnits="userSpaceOnUse"><stop stop-color="#0F2A44"/><stop offset="0.55" stop-color="#071426"/><stop offset="1" stop-color="#020617"/></linearGradient>
    <linearGradient id="kit2" x1="333" y1="760" x2="594" y2="1027" gradientUnits="userSpaceOnUse"><stop stop-color="#0EA5E9" stop-opacity="0.65"/><stop offset="0.42" stop-color="#071426"/><stop offset="1" stop-color="#020617"/></linearGradient>
    <linearGradient id="skin" x1="365" y1="290" x2="520" y2="590" gradientUnits="userSpaceOnUse"><stop stop-color="#F1C29A"/><stop offset="0.55" stop-color="#C98152"/><stop offset="1" stop-color="#8A4C2F"/></linearGradient>
    <linearGradient id="neck" x1="450" y1="629" x2="450" y2="786" gradientUnits="userSpaceOnUse"><stop stop-color="#C98152"/><stop offset="1" stop-color="#8A4C2F"/></linearGradient>
  </defs>
</svg>
