<svg width="1024" height="1024" viewBox="0 0 1024 1024" fill="none" xmlns="http://www.w3.org/2000/svg">
  <rect width="1024" height="1024" rx="184" fill="#020617"/>
  <circle cx="512" cy="492" r="432" fill="url(#aura)" opacity=".9"/>
  <path d="M512 56 852 176v275c0 232-145 407-340 506C317 858 172 683 172 451V176L512 56Z" fill="url(#outer)" stroke="url(#chrome)" stroke-width="30"/>
  <path d="M512 104 810 210v239c0 202-124 352-298 442-174-90-298-240-298-442V210L512 104Z" fill="url(#inner)" stroke="#0BE7FF" stroke-width="12"/>
  <path d="M246 434C286 250 386 170 512 170c126 0 226 80 266 264" stroke="#19D8FF" stroke-width="16" stroke-linecap="round" opacity=".95"/>
  <path d="M304 362c51-76 124-114 208-114s157 38 208 114" stroke="#F8FAFC" stroke-width="18" stroke-linecap="round" opacity=".9"/>
  <path d="M315 702c54 84 120 126 197 126s143-42 197-126" stroke="#0284C7" stroke-width="16" stroke-linecap="round"/>
  <path d="M512 134 539 188l60 9-44 42 11 59-54-29-54 29 11-59-44-42 60-9 27-54Z" fill="url(#cyanStar)"/>
  <path d="M386 178 407 221l47 7-34 33 8 47-42-22-42 22 8-47-34-33 47-7 21-43Z" fill="url(#silver)"/>
  <path d="M638 178 659 221l47 7-34 33 8 47-42-22-42 22 8-47-34-33 47-7 21-43Z" fill="url(#silver)"/>
  <circle cx="512" cy="408" r="142" fill="url(#ballGlow)" stroke="#0F172A" stroke-width="12"/>
  <path d="M512 280 578 328l-25 78h-82l-25-78 66-48Z" fill="#020617"/>
  <path d="M445 326 377 350l-9 78 50 39 53-61-26-80Z" fill="#F8FAFC"/>
  <path d="M579 326 647 350l9 78-50 39-53-61 26-80Z" fill="#CBD5E1"/>
  <path d="M418 467 395 541l66 49 51-37v-83l-41-64-53 61Z" fill="#DDE7F3"/>
  <path d="M606 467 629 541l-66 49-51-37v-83l41-64 53 61Z" fill="#F8FAFC"/>
  <path d="M461 590h102l44-48-44-51H461l-44 51 44 48Z" fill="#111827"/>
  <path d="M512 280v128M377 350l94 56M647 350l-94 56M461 590l51-37 51 37" stroke="#0F172A" stroke-width="8" stroke-linecap="round"/>
  <rect x="142" y="554" width="740" height="160" rx="30" fill="url(#nameplate)" stroke="url(#edge)" stroke-width="10"/>
  <text x="512" y="670" text-anchor="middle" font-family="Arial Black, Impact, sans-serif" font-size="132" font-weight="900" fill="url(#whiteMetal)" stroke="#020617" stroke-width="8" paint-order="stroke fill">FANTASY</text>
  <text x="512" y="781" text-anchor="middle" font-family="Arial Black, Impact, sans-serif" font-size="118" font-weight="900" fill="url(#arenaBlue)" stroke="#042F4F" stroke-width="6" paint-order="stroke fill" letter-spacing="8">ARENA</text>
  <path d="M226 804h160M638 804h160" stroke="#04D9FF" stroke-width="12" stroke-linecap="round"/>
  <path d="M512 884c-79-40-146-92-197-154h394c-51 62-118 114-197 154Z" fill="url(#bottomGlow)" opacity=".72"/>
  <defs>
    <radialGradient id="aura" cx="0" cy="0" r="1" gradientUnits="userSpaceOnUse" gradientTransform="translate(512 492) rotate(90) scale(432)"><stop stop-color="#0EA5E9" stop-opacity=".42"/><stop offset=".58" stop-color="#1D4ED8" stop-opacity=".2"/><stop offset="1" stop-color="#020617" stop-opacity="0"/></radialGradient>
    <linearGradient id="outer" x1="172" y1="56" x2="852" y2="957"><stop stop-color="#111827"/><stop offset=".5" stop-color="#061A33"/><stop offset="1" stop-color="#020617"/></linearGradient>
    <linearGradient id="inner" x1="512" y1="104" x2="512" y2="891"><stop stop-color="#0A1730"/><stop offset=".55" stop-color="#020617"/><stop offset="1" stop-color="#071326"/></linearGradient>
    <linearGradient id="chrome" x1="190" y1="92" x2="824" y2="912"><stop stop-color="#FFFFFF"/><stop offset=".18" stop-color="#B8D7FF"/><stop offset=".36" stop-color="#0EA5E9"/><stop offset=".65" stop-color="#7DD3FC"/><stop offset=".82" stop-color="#F8FAFC"/><stop offset="1" stop-color="#475569"/></linearGradient>
    <linearGradient id="cyanStar" x1="512" y1="134" x2="512" y2="298"><stop stop-color="#A5F3FC"/><stop offset=".5" stop-color="#06B6D4"/><stop offset="1" stop-color="#0284C7"/></linearGradient>
    <linearGradient id="silver" x1="386" y1="178" x2="386" y2="308"><stop stop-color="#FFFFFF"/><stop offset=".5" stop-color="#CBD5E1"/><stop offset="1" stop-color="#64748B"/></linearGradient>
    <linearGradient id="ballGlow" x1="430" y1="290" x2="594" y2="550"><stop stop-color="#FFFFFF"/><stop offset=".45" stop-color="#E2E8F0"/><stop offset="1" stop-color="#94A3B8"/></linearGradient>
    <linearGradient id="nameplate" x1="142" y1="554" x2="882" y2="714"><stop stop-color="#06101F"/><stop offset=".5" stop-color="#020617"/><stop offset="1" stop-color="#061C35"/></linearGradient>
    <linearGradient id="edge" x1="142" y1="554" x2="882" y2="714"><stop stop-color="#06B6D4"/><stop offset=".5" stop-color="#F8FAFC"/><stop offset="1" stop-color="#0EA5E9"/></linearGradient>
    <linearGradient id="whiteMetal" x1="512" y1="548" x2="512" y2="685"><stop stop-color="#FFFFFF"/><stop offset=".42" stop-color="#F8FAFC"/><stop offset=".64" stop-color="#94A3B8"/><stop offset="1" stop-color="#FFFFFF"/></linearGradient>
    <linearGradient id="arenaBlue" x1="512" y1="684" x2="512" y2="795"><stop stop-color="#A5F3FC"/><stop offset=".4" stop-color="#22D3EE"/><stop offset="1" stop-color="#0284C7"/></linearGradient>
    <linearGradient id="bottomGlow" x1="512" y1="730" x2="512" y2="884"><stop stop-color="#0EA5E9" stop-opacity=".45"/><stop offset="1" stop-color="#020617" stop-opacity="0"/></linearGradient>
  </defs>
</svg>
