<svg width="1024" height="1024" viewBox="0 0 1024 1024" fill="none" xmlns="http://www.w3.org/2000/svg">
  <defs>
    <radialGradient id="bg" cx="0" cy="0" r="1" gradientUnits="userSpaceOnUse" gradientTransform="translate(512 470) rotate(90) scale(490)">
      <stop stop-color="#11183A"/>
      <stop offset="0.55" stop-color="#06091A"/>
      <stop offset="1" stop-color="#01030A"/>
    </radialGradient>
    <linearGradient id="ring" x1="120" y1="130" x2="900" y2="890" gradientUnits="userSpaceOnUse">
      <stop stop-color="#E025FF"/>
      <stop offset="0.48" stop-color="#7C3AED"/>
      <stop offset="1" stop-color="#20B8FF"/>
    </linearGradient>
    <linearGradient id="a" x1="540" y1="260" x2="760" y2="590" gradientUnits="userSpaceOnUse">
      <stop stop-color="#C026FF"/>
      <stop offset="0.5" stop-color="#7C3AED"/>
      <stop offset="1" stop-color="#22A7FF"/>
    </linearGradient>
    <linearGradient id="arena" x1="360" y1="690" x2="680" y2="810" gradientUnits="userSpaceOnUse">
      <stop stop-color="#D026FF"/>
      <stop offset="0.5" stop-color="#8B5CF6"/>
      <stop offset="1" stop-color="#2B9CFF"/>
    </linearGradient>
    <filter id="glow" x="-80%" y="-80%" width="260%" height="260%">
      <feGaussianBlur stdDeviation="16" result="blur"/>
      <feMerge><feMergeNode in="blur"/><feMergeNode in="SourceGraphic"/></feMerge>
    </filter>
    <filter id="shadow" x="-30%" y="-30%" width="160%" height="160%">
      <feDropShadow dx="0" dy="20" stdDeviation="18" flood-color="#000000" flood-opacity="0.85"/>
    </filter>
    <clipPath id="circle"><circle cx="512" cy="512" r="488"/></clipPath>
  </defs>

  <g clip-path="url(#circle)">
    <rect width="1024" height="1024" fill="url(#bg)"/>
    <ellipse cx="512" cy="705" rx="430" ry="180" fill="#090D24"/>
    <path d="M50 650C220 565 804 565 974 650" stroke="#6423C9" stroke-opacity="0.45" stroke-width="12"/>
    <path d="M72 700C270 615 754 615 952 700" stroke="#1C7ED6" stroke-opacity="0.35" stroke-width="9"/>
    <g opacity="0.55">
      <circle cx="160" cy="280" r="16" fill="#FFF" filter="url(#glow)"/>
      <circle cx="202" cy="260" r="13" fill="#FFF" filter="url(#glow)"/>
      <circle cx="244" cy="280" r="16" fill="#FFF" filter="url(#glow)"/>
      <circle cx="780" cy="280" r="16" fill="#FFF" filter="url(#glow)"/>
      <circle cx="822" cy="260" r="13" fill="#FFF" filter="url(#glow)"/>
      <circle cx="864" cy="280" r="16" fill="#FFF" filter="url(#glow)"/>
    </g>

    <g filter="url(#shadow)">
      <path d="M286 244H553L522 324H389V382H506L477 462H389V590H286V244Z" fill="#FFFFFF"/>
      <path d="M558 244H671L795 590H689L667 522H553L526 590H420L558 244ZM579 438H640L612 350L579 438Z" fill="url(#a)"/>
      <path d="M420 590L517 443H593L499 590H420Z" fill="#6D28D9"/>
    </g>

    <text x="512" y="694" text-anchor="middle" fill="#FFFFFF" font-family="Arial, Helvetica, sans-serif" font-size="86" font-weight="800" letter-spacing="20">FANTASY</text>
    <text x="512" y="790" text-anchor="middle" fill="url(#arena)" font-family="Arial, Helvetica, sans-serif" font-size="104" font-weight="900" letter-spacing="15">ARENA</text>

    <path d="M355 846H455" stroke="#D026FF" stroke-width="8" stroke-linecap="round"/>
    <path d="M569 846H669" stroke="#20B8FF" stroke-width="8" stroke-linecap="round"/>
    <path d="M491 820H533V844C533 866 517 880 512 882C507 880 491 866 491 844V820Z" stroke="url(#ring)" stroke-width="9"/>
    <path d="M480 826H464C464 850 477 860 493 860M544 826H560C560 850 547 860 531 860M512 882V902M488 902H536" stroke="url(#ring)" stroke-width="8" stroke-linecap="round"/>
    <text x="512" y="944" text-anchor="middle" fill="#FFFFFF" font-family="Arial, Helvetica, sans-serif" font-size="34" font-weight="800" letter-spacing="9">PLAY. COMPETE. WIN.</text>
  </g>

  <circle cx="512" cy="512" r="488" stroke="url(#ring)" stroke-width="18"/>
  <circle cx="512" cy="512" r="472" stroke="#FFFFFF" stroke-opacity="0.12" stroke-width="3"/>
</svg>